<svg xmlns="http://www.w3.org/2000/svg" width="16" height="16" viewBox="0 0 16 16" shape-rendering="crispEdges"><rect x="1" y="1" width="14" height="1" fill="#4A5A80"/><rect x="0" y="2" width="1" height="1" fill="#4A5A80"/><rect x="1" y="2" width="10" height="1" fill="#FFD166"/><rect x="11" y="2" width="1" height="1" fill="#FF7A1A"/><rect x="12" y="2" width="1" height="1" fill="#D93A2E"/><rect x="13" y="2" width="1" height="1" fill="#7CE38B"/><rect x="14" y="2" width="1" height="1" fill="#FFD166"/><rect x="15" y="2" width="1" height="1" fill="#4A5A80"/><rect x="0" y="3" width="16" height="1" fill="#4A5A80"/><rect x="0" y="4" width="1" height="1" fill="#4A5A80"/><rect x="1" y="4" width="14" height="1" fill="#0A1020"/><rect x="15" y="4" width="1" height="1" fill="#4A5A80"/><rect x="0" y="5" width="1" height="1" fill="#4A5A80"/><rect x="1" y="5" width="1" height="1" fill="#0A1020"/><rect x="2" y="5" width="1" height="1" fill="#7CE38B"/><rect x="3" y="5" width="12" height="1" fill="#0A1020"/><rect x="15" y="5" width="1" height="1" fill="#4A5A80"/><rect x="0" y="6" width="1" height="1" fill="#4A5A80"/><rect x="1" y="6" width="2" height="1" fill="#0A1020"/><rect x="3" y="6" width="1" height="1" fill="#7CE38B"/><rect x="4" y="6" width="11" height="1" fill="#0A1020"/><rect x="15" y="6" width="1" height="1" fill="#4A5A80"/><rect x="0" y="7" width="1" height="1" fill="#4A5A80"/><rect x="1" y="7" width="3" height="1" fill="#0A1020"/><rect x="4" y="7" width="1" height="1" fill="#7CE38B"/><rect x="5" y="7" width="10" height="1" fill="#0A1020"/><rect x="15" y="7" width="1" height="1" fill="#4A5A80"/><rect x="0" y="8" width="1" height="1" fill="#4A5A80"/><rect x="1" y="8" width="2" height="1" fill="#0A1020"/><rect x="3" y="8" width="1" height="1" fill="#7CE38B"/><rect x="4" y="8" width="11" height="1" fill="#0A1020"/><rect x="15" y="8" width="1" height="1" fill="#4A5A80"/><rect x="0" y="9" width="1" height="1" fill="#4A5A80"/><rect x="1" y="9" width="1" height="1" fill="#0A1020"/><rect x="2" y="9" width="1" height="1" fill="#7CE38B"/><rect x="3" y="9" width="2" height="1" fill="#0A1020"/><rect x="5" y="9" width="4" height="1" fill="#7CE38B"/><rect x="9" y="9" width="6" height="1" fill="#0A1020"/><rect x="15" y="9" width="1" height="1" fill="#4A5A80"/><rect x="0" y="10" width="1" height="1" fill="#4A5A80"/><rect x="1" y="10" width="14" height="1" fill="#0A1020"/><rect x="15" y="10" width="1" height="1" fill="#4A5A80"/><rect x="0" y="11" width="1" height="1" fill="#4A5A80"/><rect x="1" y="11" width="14" height="1" fill="#0A1020"/><rect x="15" y="11" width="1" height="1" fill="#4A5A80"/><rect x="0" y="12" width="1" height="1" fill="#4A5A80"/><rect x="1" y="12" width="14" height="1" fill="#0A1020"/><rect x="15" y="12" width="1" height="1" fill="#4A5A80"/><rect x="0" y="13" width="1" height="1" fill="#4A5A80"/><rect x="1" y="13" width="14" height="1" fill="#0A1020"/><rect x="15" y="13" width="1" height="1" fill="#4A5A80"/><rect x="1" y="14" width="14" height="1" fill="#4A5A80"/></svg>
